<svg xmlns="http://www.w3.org/2000/svg" viewBox="0 0 493.68 703.01"><defs><style>.cls-1{isolation:isolate;}.cls-2{fill:#fbf0ce;}.cls-3{fill:#44a5c6;}.cls-4{fill:#267489;}.cls-5{fill:#241f20;opacity:0.16;mix-blend-mode:multiply;}.cls-6{fill:#f5cf10;}.cls-7{fill:#242328;}.cls-8{fill:#f16022;}</style></defs><title>logo6</title><g class="cls-1"><g id="Background"><rect class="cls-2" width="493.68" height="703.01"/><rect class="cls-3" x="11.22" y="10.88" width="473.24" height="682.25"/></g><g id="Graphic"><path class="cls-4" d="M20.07,352H11v-5.37h9.1Zm-8.6-.5h8.1v-4.37h-8.1Z"/><path class="cls-4" d="M28.68,352H19.57v-5.37h9.11Zm-8.61-.5h8.11v-4.37H20.07Z"/><path class="cls-4" d="M37.28,352h-9.1v-5.37h9.1Zm-8.6-.5h8.1v-4.37h-8.1Z"/><path class="cls-4" d="M45.89,352H36.78v-5.37h9.11Zm-8.61-.5h8.11v-4.37H37.28Z"/><path class="cls-4" d="M54.49,352h-9.1v-5.37h9.1Zm-8.6-.5H54v-4.37h-8.1Z"/><path class="cls-4" d="M63.1,352H54v-5.37H63.1Zm-8.61-.5H62.6v-4.37H54.49Z"/><path class="cls-4" d="M71.7,352H62.6v-5.37h9.1Zm-8.6-.5h8.1v-4.37H63.1Z"/><path class="cls-4" d="M80.3,352H71.2v-5.37h9.1Zm-8.6-.5h8.1v-4.37H71.7Z"/><path class="cls-4" d="M88.91,352H79.8v-5.37h9.11Zm-8.61-.5h8.11v-4.37H80.3Z"/><path class="cls-4" d="M97.51,352h-9.1v-5.37h9.1Zm-8.6-.5H97v-4.37h-8.1Z"/><path class="cls-4" d="M106.12,352H97v-5.37h9.11Zm-8.61-.5h8.11v-4.37H97.51Z"/><path class="cls-4" d="M114.72,352h-9.1v-5.37h9.1Zm-8.6-.5h8.1v-4.37h-8.1Z"/><path class="cls-4" d="M123.33,352h-9.11v-5.37h9.11Zm-8.61-.5h8.11v-4.37h-8.11Z"/><path class="cls-4" d="M131.93,352h-9.1v-5.37h9.1Zm-8.6-.5h8.1v-4.37h-8.1Z"/><path class="cls-4" d="M140.53,352h-9.1v-5.37h9.1Zm-8.6-.5H140v-4.37h-8.1Z"/><path class="cls-4" d="M149.14,352H140v-5.37h9.11Zm-8.61-.5h8.11v-4.37h-8.11Z"/><path class="cls-4" d="M157.74,352h-9.1v-5.37h9.1Zm-8.6-.5h8.1v-4.37h-8.1Z"/><path class="cls-4" d="M166.35,352h-9.11v-5.37h9.11Zm-8.61-.5h8.11v-4.37h-8.11Z"/><path class="cls-4" d="M175,352h-9.1v-5.37H175Zm-8.6-.5h8.1v-4.37h-8.1Z"/><path class="cls-4" d="M183.56,352h-9.11v-5.37h9.11Zm-8.61-.5h8.11v-4.37H175Z"/><path class="cls-4" d="M192.16,352h-9.1v-5.37h9.1Zm-8.6-.5h8.1v-4.37h-8.1Z"/><path class="cls-4" d="M200.76,352h-9.1v-5.37h9.1Zm-8.6-.5h8.1v-4.37h-8.1Z"/><path class="cls-4" d="M209.37,352h-9.11v-5.37h9.11Zm-8.61-.5h8.11v-4.37h-8.11Z"/><path class="cls-4" d="M218,352h-9.1v-5.37H218Zm-8.6-.5h8.1v-4.37h-8.1Z"/><path class="cls-4" d="M226.58,352h-9.11v-5.37h9.11Zm-8.61-.5h8.11v-4.37H218Z"/><path class="cls-4" d="M235.18,352h-9.1v-5.37h9.1Zm-8.6-.5h8.1v-4.37h-8.1Z"/><path class="cls-4" d="M243.79,352h-9.11v-5.37h9.11Zm-8.61-.5h8.11v-4.37h-8.11Z"/><path class="cls-4" d="M252.39,352h-9.1v-5.37h9.1Zm-8.6-.5h8.1v-4.37h-8.1Z"/><path class="cls-4" d="M261,352h-9.11v-5.37H261Zm-8.61-.5h8.11v-4.37h-8.11Z"/><path class="cls-4" d="M269.6,352h-9.1v-5.37h9.1Zm-8.6-.5h8.1v-4.37H261Z"/><path class="cls-4" d="M278.2,352h-9.1v-5.37h9.1Zm-8.6-.5h8.1v-4.37h-8.1Z"/><path class="cls-4" d="M286.81,352H277.7v-5.37h9.11Zm-8.61-.5h8.11v-4.37H278.2Z"/><path class="cls-4" d="M295.41,352h-9.1v-5.37h9.1Zm-8.6-.5h8.1v-4.37h-8.1Z"/><path class="cls-4" d="M304,352h-9.11v-5.37H304Zm-8.61-.5h8.11v-4.37h-8.11Z"/><path class="cls-4" d="M312.62,352h-9.1v-5.37h9.1Zm-8.6-.5h8.1v-4.37H304Z"/><path class="cls-4" d="M321.23,352h-9.11v-5.37h9.11Zm-8.61-.5h8.11v-4.37h-8.11Z"/><path class="cls-4" d="M329.83,352h-9.1v-5.37h9.1Zm-8.6-.5h8.1v-4.37h-8.1Z"/><path class="cls-4" d="M338.43,352h-9.1v-5.37h9.1Zm-8.6-.5h8.1v-4.37h-8.1Z"/><path class="cls-4" d="M347,352h-9.11v-5.37H347Zm-8.61-.5h8.11v-4.37h-8.11Z"/><path class="cls-4" d="M355.64,352h-9.1v-5.37h9.1Zm-8.6-.5h8.1v-4.37H347Z"/><path class="cls-4" d="M364.25,352h-9.11v-5.37h9.11Zm-8.61-.5h8.11v-4.37h-8.11Z"/><path class="cls-4" d="M372.85,352h-9.1v-5.37h9.1Zm-8.6-.5h8.1v-4.37h-8.1Z"/><path class="cls-4" d="M381.46,352h-9.11v-5.37h9.11Zm-8.61-.5H381v-4.37h-8.11Z"/><path class="cls-4" d="M390.06,352H381v-5.37h9.1Zm-8.6-.5h8.1v-4.37h-8.1Z"/><path class="cls-4" d="M398.66,352h-9.1v-5.37h9.1Zm-8.6-.5h8.1v-4.37h-8.1Z"/><path class="cls-4" d="M407.27,352h-9.11v-5.37h9.11Zm-8.61-.5h8.11v-4.37h-8.11Z"/><path class="cls-4" d="M415.87,352h-9.1v-5.37h9.1Zm-8.6-.5h8.1v-4.37h-8.1Z"/><path class="cls-4" d="M424.48,352h-9.11v-5.37h9.11Zm-8.61-.5H424v-4.37h-8.11Z"/><path class="cls-4" d="M433.08,352H424v-5.37h9.1Zm-8.6-.5h8.1v-4.37h-8.1Z"/><path class="cls-4" d="M441.69,352h-9.11v-5.37h9.11Zm-8.61-.5h8.11v-4.37h-8.11Z"/><path class="cls-4" d="M450.29,352h-9.1v-5.37h9.1Zm-8.6-.5h8.1v-4.37h-8.1Z"/><path class="cls-4" d="M458.9,352h-9.11v-5.37h9.11Zm-8.61-.5h8.11v-4.37h-8.11Z"/><path class="cls-4" d="M467.5,352h-9.1v-5.37h9.1Zm-8.6-.5H467v-4.37h-8.1Z"/><path class="cls-4" d="M476.1,352H467v-5.37h9.1Zm-8.6-.5h8.1v-4.37h-8.1Z"/><path class="cls-4" d="M484.71,352H475.6v-5.37h9.11Zm-8.61-.5h8.11v-4.37H476.1Z"/><path class="cls-4" d="M20.07,356.84H11v-5.38h9.1Zm-8.6-.5h8.1V352h-8.1Z"/><path class="cls-4" d="M28.68,356.84H19.57v-5.38h9.11Zm-8.61-.5h8.11V352H20.07Z"/><path class="cls-4" d="M37.28,356.84h-9.1v-5.38h9.1Zm-8.6-.5h8.1V352h-8.1Z"/><path class="cls-4" d="M45.89,356.84H36.78v-5.38h9.11Zm-8.61-.5h8.11V352H37.28Z"/><path class="cls-4" d="M54.49,356.84h-9.1v-5.38h9.1Zm-8.6-.5H54V352h-8.1Z"/><path class="cls-4" d="M63.1,356.84H54v-5.38H63.1Zm-8.61-.5H62.6V352H54.49Z"/><path class="cls-4" d="M71.7,356.84H62.6v-5.38h9.1Zm-8.6-.5h8.1V352H63.1Z"/><path class="cls-4" d="M80.3,356.84H71.2v-5.38h9.1Zm-8.6-.5h8.1V352H71.7Z"/><path class="cls-4" d="M88.91,356.84H79.8v-5.38h9.11Zm-8.61-.5h8.11V352H80.3Z"/><path class="cls-4" d="M97.51,356.84h-9.1v-5.38h9.1Zm-8.6-.5H97V352h-8.1Z"/><path class="cls-4" d="M106.12,356.84H97v-5.38h9.11Zm-8.61-.5h8.11V352H97.51Z"/><path class="cls-4" d="M114.72,356.84h-9.1v-5.38h9.1Zm-8.6-.5h8.1V352h-8.1Z"/><path class="cls-4" d="M123.33,356.84h-9.11v-5.38h9.11Zm-8.61-.5h8.11V352h-8.11Z"/><path class="cls-4" d="M131.93,356.84h-9.1v-5.38h9.1Zm-8.6-.5h8.1V352h-8.1Z"/><path class="cls-4" d="M140.53,356.84h-9.1v-5.38h9.1Zm-8.6-.5H140V352h-8.1Z"/><path class="cls-4" d="M149.14,356.84H140v-5.38h9.11Zm-8.61-.5h8.11V352h-8.11Z"/><path class="cls-4" d="M157.74,356.84h-9.1v-5.38h9.1Zm-8.6-.5h8.1V352h-8.1Z"/><path class="cls-4" d="M166.35,356.84h-9.11v-5.38h9.11Zm-8.61-.5h8.11V352h-8.11Z"/><path class="cls-4" d="M175,356.84h-9.1v-5.38H175Zm-8.6-.5h8.1V352h-8.1Z"/><path class="cls-4" d="M183.56,356.84h-9.11v-5.38h9.11Zm-8.61-.5h8.11V352H175Z"/><path class="cls-4" d="M192.16,356.84h-9.1v-5.38h9.1Zm-8.6-.5h8.1V352h-8.1Z"/><path class="cls-4" d="M200.76,356.84h-9.1v-5.38h9.1Zm-8.6-.5h8.1V352h-8.1Z"/><path class="cls-4" d="M209.37,356.84h-9.11v-5.38h9.11Zm-8.61-.5h8.11V352h-8.11Z"/><path class="cls-4" d="M218,356.84h-9.1v-5.38H218Zm-8.6-.5h8.1V352h-8.1Z"/><path class="cls-4" d="M226.58,356.84h-9.11v-5.38h9.11Zm-8.61-.5h8.11V352H218Z"/><path class="cls-4" d="M235.18,356.84h-9.1v-5.38h9.1Zm-8.6-.5h8.1V352h-8.1Z"/><path class="cls-4" d="M243.79,356.84h-9.11v-5.38h9.11Zm-8.61-.5h8.11V352h-8.11Z"/><path class="cls-4" d="M252.39,356.84h-9.1v-5.38h9.1Zm-8.6-.5h8.1V352h-8.1Z"/><path class="cls-4" d="M261,356.84h-9.11v-5.38H261Zm-8.61-.5h8.11V352h-8.11Z"/><path class="cls-4" d="M269.6,356.84h-9.1v-5.38h9.1Zm-8.6-.5h8.1V352H261Z"/><path class="cls-4" d="M278.2,356.84h-9.1v-5.38h9.1Zm-8.6-.5h8.1V352h-8.1Z"/><path class="cls-4" d="M286.81,356.84H277.7v-5.38h9.11Zm-8.61-.5h8.11V352H278.2Z"/><path class="cls-4" d="M295.41,356.84h-9.1v-5.38h9.1Zm-8.6-.5h8.1V352h-8.1Z"/><path class="cls-4" d="M304,356.84h-9.11v-5.38H304Zm-8.61-.5h8.11V352h-8.11Z"/><path class="cls-4" d="M312.62,356.84h-9.1v-5.38h9.1Zm-8.6-.5h8.1V352H304Z"/><path class="cls-4" d="M321.23,356.84h-9.11v-5.38h9.11Zm-8.61-.5h8.11V352h-8.11Z"/><path class="cls-4" d="M329.83,356.84h-9.1v-5.38h9.1Zm-8.6-.5h8.1V352h-8.1Z"/><path class="cls-4" d="M338.43,356.84h-9.1v-5.38h9.1Zm-8.6-.5h8.1V352h-8.1Z"/><path class="cls-4" d="M347,356.84h-9.11v-5.38H347Zm-8.61-.5h8.11V352h-8.11Z"/><path class="cls-4" d="M355.64,356.84h-9.1v-5.38h9.1Zm-8.6-.5h8.1V352H347Z"/><path class="cls-4" d="M364.25,356.84h-9.11v-5.38h9.11Zm-8.61-.5h8.11V352h-8.11Z"/><path class="cls-4" d="M372.85,356.84h-9.1v-5.38h9.1Zm-8.6-.5h8.1V352h-8.1Z"/><path class="cls-4" d="M381.46,356.84h-9.11v-5.38h9.11Zm-8.61-.5H381V352h-8.11Z"/><path class="cls-4" d="M390.06,356.84H381v-5.38h9.1Zm-8.6-.5h8.1V352h-8.1Z"/><path class="cls-4" d="M398.66,356.84h-9.1v-5.38h9.1Zm-8.6-.5h8.1V352h-8.1Z"/><path class="cls-4" d="M407.27,356.84h-9.11v-5.38h9.11Zm-8.61-.5h8.11V352h-8.11Z"/><path class="cls-4" d="M415.87,356.84h-9.1v-5.38h9.1Zm-8.6-.5h8.1V352h-8.1Z"/><path class="cls-4" d="M424.48,356.84h-9.11v-5.38h9.11Zm-8.61-.5H424V352h-8.11Z"/><path class="cls-4" d="M433.08,356.84H424v-5.38h9.1Zm-8.6-.5h8.1V352h-8.1Z"/><path class="cls-4" d="M441.69,356.84h-9.11v-5.38h9.11Zm-8.61-.5h8.11V352h-8.11Z"/><path class="cls-4" d="M450.29,356.84h-9.1v-5.38h9.1Zm-8.6-.5h8.1V352h-8.1Z"/><path class="cls-4" d="M458.9,356.84h-9.11v-5.38h9.11Zm-8.61-.5h8.11V352h-8.11Z"/><path class="cls-4" d="M467.5,356.84h-9.1v-5.38h9.1Zm-8.6-.5H467V352h-8.1Z"/><path class="cls-4" d="M476.1,356.84H467v-5.38h9.1Zm-8.6-.5h8.1V352h-8.1Z"/><path class="cls-4" d="M484.71,356.84H475.6v-5.38h9.11Zm-8.61-.5h8.11V352H476.1Z"/><path class="cls-4" d="M20.07,361.71H11v-5.37h9.1Zm-8.6-.5h8.1v-4.37h-8.1Z"/><path class="cls-4" d="M28.68,361.71H19.57v-5.37h9.11Zm-8.61-.5h8.11v-4.37H20.07Z"/><path class="cls-4" d="M37.28,361.71h-9.1v-5.37h9.1Zm-8.6-.5h8.1v-4.37h-8.1Z"/><path class="cls-4" d="M45.89,361.71H36.78v-5.37h9.11Zm-8.61-.5h8.11v-4.37H37.28Z"/><path class="cls-4" d="M54.49,361.71h-9.1v-5.37h9.1Zm-8.6-.5H54v-4.37h-8.1Z"/><path class="cls-4" d="M63.1,361.71H54v-5.37H63.1Zm-8.61-.5H62.6v-4.37H54.49Z"/><path class="cls-4" d="M71.7,361.71H62.6v-5.37h9.1Zm-8.6-.5h8.1v-4.37H63.1Z"/><path class="cls-4" d="M80.3,361.71H71.2v-5.37h9.1Zm-8.6-.5h8.1v-4.37H71.7Z"/><path class="cls-4" d="M88.91,361.71H79.8v-5.37h9.11Zm-8.61-.5h8.11v-4.37H80.3Z"/><path class="cls-4" d="M97.51,361.71h-9.1v-5.37h9.1Zm-8.6-.5H97v-4.37h-8.1Z"/><path class="cls-4" d="M106.12,361.71H97v-5.37h9.11Zm-8.61-.5h8.11v-4.37H97.51Z"/><path class="cls-4" d="M114.72,361.71h-9.1v-5.37h9.1Zm-8.6-.5h8.1v-4.37h-8.1Z"/><path class="cls-4" d="M123.33,361.71h-9.11v-5.37h9.11Zm-8.61-.5h8.11v-4.37h-8.11Z"/><path class="cls-4" d="M131.93,361.71h-9.1v-5.37h9.1Zm-8.6-.5h8.1v-4.37h-8.1Z"/><path class="cls-4" d="M140.53,361.71h-9.1v-5.37h9.1Zm-8.6-.5H140v-4.37h-8.1Z"/><path class="cls-4" d="M149.14,361.71H140v-5.37h9.11Zm-8.61-.5h8.11v-4.37h-8.11Z"/><path class="cls-4" d="M157.74,361.71h-9.1v-5.37h9.1Zm-8.6-.5h8.1v-4.37h-8.1Z"/><path class="cls-4" d="M166.35,361.71h-9.11v-5.37h9.11Zm-8.61-.5h8.11v-4.37h-8.11Z"/><path class="cls-4" d="M175,361.71h-9.1v-5.37H175Zm-8.6-.5h8.1v-4.37h-8.1Z"/><path class="cls-4" d="M183.56,361.71h-9.11v-5.37h9.11Zm-8.61-.5h8.11v-4.37H175Z"/><path class="cls-4" d="M192.16,361.71h-9.1v-5.37h9.1Zm-8.6-.5h8.1v-4.37h-8.1Z"/><path class="cls-4" d="M200.76,361.71h-9.1v-5.37h9.1Zm-8.6-.5h8.1v-4.37h-8.1Z"/><path class="cls-4" d="M209.37,361.71h-9.11v-5.37h9.11Zm-8.61-.5h8.11v-4.37h-8.11Z"/><path class="cls-4" d="M218,361.71h-9.1v-5.37H218Zm-8.6-.5h8.1v-4.37h-8.1Z"/><path class="cls-4" d="M226.58,361.71h-9.11v-5.37h9.11Zm-8.61-.5h8.11v-4.37H218Z"/><path class="cls-4" d="M235.18,361.71h-9.1v-5.37h9.1Zm-8.6-.5h8.1v-4.37h-8.1Z"/><path class="cls-4" d="M243.79,361.71h-9.11v-5.37h9.11Zm-8.61-.5h8.11v-4.37h-8.11Z"/><path class="cls-4" d="M252.39,361.71h-9.1v-5.37h9.1Zm-8.6-.5h8.1v-4.37h-8.1Z"/><path class="cls-4" d="M261,361.71h-9.11v-5.37H261Zm-8.61-.5h8.11v-4.37h-8.11Z"/><path class="cls-4" d="M269.6,361.71h-9.1v-5.37h9.1Zm-8.6-.5h8.1v-4.37H261Z"/><path class="cls-4" d="M278.2,361.71h-9.1v-5.37h9.1Zm-8.6-.5h8.1v-4.37h-8.1Z"/><path class="cls-4" d="M286.81,361.71H277.7v-5.37h9.11Zm-8.61-.5h8.11v-4.37H278.2Z"/><path class="cls-4" d="M295.41,361.71h-9.1v-5.37h9.1Zm-8.6-.5h8.1v-4.37h-8.1Z"/><path class="cls-4" d="M304,361.71h-9.11v-5.37H304Zm-8.61-.5h8.11v-4.37h-8.11Z"/><path class="cls-4" d="M312.62,361.71h-9.1v-5.37h9.1Zm-8.6-.5h8.1v-4.37H304Z"/><path class="cls-4" d="M321.23,361.71h-9.11v-5.37h9.11Zm-8.61-.5h8.11v-4.37h-8.11Z"/><path class="cls-4" d="M329.83,361.71h-9.1v-5.37h9.1Zm-8.6-.5h8.1v-4.37h-8.1Z"/><path class="cls-4" d="M338.43,361.71h-9.1v-5.37h9.1Zm-8.6-.5h8.1v-4.37h-8.1Z"/><path class="cls-4" d="M347,361.71h-9.11v-5.37H347Zm-8.61-.5h8.11v-4.37h-8.11Z"/><path class="cls-4" d="M355.64,361.71h-9.1v-5.37h9.1Zm-8.6-.5h8.1v-4.37H347Z"/><path class="cls-4" d="M364.25,361.71h-9.11v-5.37h9.11Zm-8.61-.5h8.11v-4.37h-8.11Z"/><path class="cls-4" d="M372.85,361.71h-9.1v-5.37h9.1Zm-8.6-.5h8.1v-4.37h-8.1Z"/><path class="cls-4" d="M381.46,361.71h-9.11v-5.37h9.11Zm-8.61-.5H381v-4.37h-8.11Z"/><path class="cls-4" d="M390.06,361.71H381v-5.37h9.1Zm-8.6-.5h8.1v-4.37h-8.1Z"/><path class="cls-4" d="M398.66,361.71h-9.1v-5.37h9.1Zm-8.6-.5h8.1v-4.37h-8.1Z"/><path class="cls-4" d="M407.27,361.71h-9.11v-5.37h9.11Zm-8.61-.5h8.11v-4.37h-8.11Z"/><path class="cls-4" d="M415.87,361.71h-9.1v-5.37h9.1Zm-8.6-.5h8.1v-4.37h-8.1Z"/><path class="cls-4" d="M424.48,361.71h-9.11v-5.37h9.11Zm-8.61-.5H424v-4.37h-8.11Z"/><path class="cls-4" d="M433.08,361.71H424v-5.37h9.1Zm-8.6-.5h8.1v-4.37h-8.1Z"/><path class="cls-4" d="M441.69,361.71h-9.11v-5.37h9.11Zm-8.61-.5h8.11v-4.37h-8.11Z"/><path class="cls-4" d="M450.29,361.71h-9.1v-5.37h9.1Zm-8.6-.5h8.1v-4.37h-8.1Z"/><path class="cls-4" d="M458.9,361.71h-9.11v-5.37h9.11Zm-8.61-.5h8.11v-4.37h-8.11Z"/><path class="cls-4" d="M467.5,361.71h-9.1v-5.37h9.1Zm-8.6-.5H467v-4.37h-8.1Z"/><path class="cls-4" d="M476.1,361.71H467v-5.37h9.1Zm-8.6-.5h8.1v-4.37h-8.1Z"/><path class="cls-4" d="M484.71,361.71H475.6v-5.37h9.11Zm-8.61-.5h8.11v-4.37H476.1Z"/><path class="cls-4" d="M20.07,366.58H11v-5.37h9.1Zm-8.6-.5h8.1v-4.37h-8.1Z"/><path class="cls-4" d="M28.68,366.58H19.57v-5.37h9.11Zm-8.61-.5h8.11v-4.37H20.07Z"/><path class="cls-4" d="M37.28,366.58h-9.1v-5.37h9.1Zm-8.6-.5h8.1v-4.37h-8.1Z"/><path class="cls-4" d="M45.89,366.58H36.78v-5.37h9.11Zm-8.61-.5h8.11v-4.37H37.28Z"/><path class="cls-4" d="M54.49,366.58h-9.1v-5.37h9.1Zm-8.6-.5H54v-4.37h-8.1Z"/><path class="cls-4" d="M63.1,366.58H54v-5.37H63.1Zm-8.61-.5H62.6v-4.37H54.49Z"/><path class="cls-4" d="M71.7,366.58H62.6v-5.37h9.1Zm-8.6-.5h8.1v-4.37H63.1Z"/><path class="cls-4" d="M80.3,366.58H71.2v-5.37h9.1Zm-8.6-.5h8.1v-4.37H71.7Z"/><path class="cls-4" d="M88.91,366.58H79.8v-5.37h9.11Zm-8.61-.5h8.11v-4.37H80.3Z"/><path class="cls-4" d="M97.51,366.58h-9.1v-5.37h9.1Zm-8.6-.5H97v-4.37h-8.1Z"/><path class="cls-4" d="M106.12,366.58H97v-5.37h9.11Zm-8.61-.5h8.11v-4.37H97.51Z"/><path class="cls-4" d="M114.72,366.58h-9.1v-5.37h9.1Zm-8.6-.5h8.1v-4.37h-8.1Z"/><path class="cls-4" d="M123.33,366.58h-9.11v-5.37h9.11Zm-8.61-.5h8.11v-4.37h-8.11Z"/><path class="cls-4" d="M131.93,366.58h-9.1v-5.37h9.1Zm-8.6-.5h8.1v-4.37h-8.1Z"/><path class="cls-4" d="M140.53,366.58h-9.1v-5.37h9.1Zm-8.6-.5H140v-4.37h-8.1Z"/><path class="cls-4" d="M149.14,366.58H140v-5.37h9.11Zm-8.61-.5h8.11v-4.37h-8.11Z"/><path class="cls-4" d="M157.74,366.58h-9.1v-5.37h9.1Zm-8.6-.5h8.1v-4.37h-8.1Z"/><path class="cls-4" d="M166.35,366.58h-9.11v-5.37h9.11Zm-8.61-.5h8.11v-4.37h-8.11Z"/><path class="cls-4" d="M175,366.58h-9.1v-5.37H175Zm-8.6-.5h8.1v-4.37h-8.1Z"/><path class="cls-4" d="M183.56,366.58h-9.11v-5.37h9.11Zm-8.61-.5h8.11v-4.37H175Z"/><path class="cls-4" d="M192.16,366.58h-9.1v-5.37h9.1Zm-8.6-.5h8.1v-4.37h-8.1Z"/><path class="cls-4" d="M200.76,366.58h-9.1v-5.37h9.1Zm-8.6-.5h8.1v-4.37h-8.1Z"/><path class="cls-4" d="M209.37,366.58h-9.11v-5.37h9.11Zm-8.61-.5h8.11v-4.37h-8.11Z"/><path class="cls-4" d="M218,366.58h-9.1v-5.37H218Zm-8.6-.5h8.1v-4.37h-8.1Z"/><path class="cls-4" d="M226.58,366.58h-9.11v-5.37h9.11Zm-8.61-.5h8.11v-4.37H218Z"/><path class="cls-4" d="M235.18,366.58h-9.1v-5.37h9.1Zm-8.6-.5h8.1v-4.37h-8.1Z"/><path class="cls-4" d="M243.79,366.58h-9.11v-5.37h9.11Zm-8.61-.5h8.11v-4.37h-8.11Z"/><path class="cls-4" d="M252.39,366.58h-9.1v-5.37h9.1Zm-8.6-.5h8.1v-4.37h-8.1Z"/><path class="cls-4" d="M261,366.58h-9.11v-5.37H261Zm-8.61-.5h8.11v-4.37h-8.11Z"/><path class="cls-4" d="M269.6,366.58h-9.1v-5.37h9.1Zm-8.6-.5h8.1v-4.37H261Z"/><path class="cls-4" d="M278.2,366.58h-9.1v-5.37h9.1Zm-8.6-.5h8.1v-4.37h-8.1Z"/><path class="cls-4" d="M286.81,366.58H277.7v-5.37h9.11Zm-8.61-.5h8.11v-4.37H278.2Z"/><path class="cls-4" d="M295.41,366.58h-9.1v-5.37h9.1Zm-8.6-.5h8.1v-4.37h-8.1Z"/><path class="cls-4" d="M304,366.58h-9.11v-5.37H304Zm-8.61-.5h8.11v-4.37h-8.11Z"/><path class="cls-4" d="M312.62,366.58h-9.1v-5.37h9.1Zm-8.6-.5h8.1v-4.37H304Z"/><path class="cls-4" d="M321.23,366.58h-9.11v-5.37h9.11Zm-8.61-.5h8.11v-4.37h-8.11Z"/><path class="cls-4" d="M329.83,366.58h-9.1v-5.37h9.1Zm-8.6-.5h8.1v-4.37h-8.1Z"/><path class="cls-4" d="M338.43,366.58h-9.1v-5.37h9.1Zm-8.6-.5h8.1v-4.37h-8.1Z"/><path class="cls-4" d="M347,366.58h-9.11v-5.37H347Zm-8.61-.5h8.11v-4.37h-8.11Z"/><path class="cls-4" d="M355.64,366.58h-9.1v-5.37h9.1Zm-8.6-.5h8.1v-4.37H347Z"/><path class="cls-4" d="M364.25,366.58h-9.11v-5.37h9.11Zm-8.61-.5h8.11v-4.37h-8.11Z"/><path class="cls-4" d="M372.85,366.58h-9.1v-5.37h9.1Zm-8.6-.5h8.1v-4.37h-8.1Z"/><path class="cls-4" d="M381.46,366.58h-9.11v-5.37h9.11Zm-8.61-.5H381v-4.37h-8.11Z"/><path class="cls-4" d="M390.06,366.58H381v-5.37h9.1Zm-8.6-.5h8.1v-4.37h-8.1Z"/><path class="cls-4" d="M398.66,366.58h-9.1v-5.37h9.1Zm-8.6-.5h8.1v-4.37h-8.1Z"/><path class="cls-4" d="M407.27,366.58h-9.11v-5.37h9.11Zm-8.61-.5h8.11v-4.37h-8.11Z"/><path class="cls-4" d="M415.87,366.58h-9.1v-5.37h9.1Zm-8.6-.5h8.1v-4.37h-8.1Z"/><path class="cls-4" d="M424.48,366.58h-9.11v-5.37h9.11Zm-8.61-.5H424v-4.37h-8.11Z"/><path class="cls-4" d="M433.08,366.58H424v-5.37h9.1Zm-8.6-.5h8.1v-4.37h-8.1Z"/><path class="cls-4" d="M441.69,366.58h-9.11v-5.37h9.11Zm-8.61-.5h8.11v-4.37h-8.11Z"/><path class="cls-4" d="M450.29,366.58h-9.1v-5.37h9.1Zm-8.6-.5h8.1v-4.37h-8.1Z"/><path class="cls-4" d="M458.9,366.58h-9.11v-5.37h9.11Zm-8.61-.5h8.11v-4.37h-8.11Z"/><path class="cls-4" d="M467.5,366.58h-9.1v-5.37h9.1Zm-8.6-.5H467v-4.37h-8.1Z"/><path class="cls-4" d="M476.1,366.58H467v-5.37h9.1Zm-8.6-.5h8.1v-4.37h-8.1Z"/><path class="cls-4" d="M484.71,366.58H475.6v-5.37h9.11Zm-8.61-.5h8.11v-4.37H476.1Z"/><rect class="cls-2" x="11.22" y="344.34" width="473.24" height="5"/><rect class="cls-2" x="246.84" y="10.88" width="2" height="682.25"/><path class="cls-5" d="M260.75,59.74C157,59.74,72.88,149.15,72.88,259.44c0,58.7,23.84,111.49,61.78,148h-.17l25.21,29s60.48,6.79,71.51,30.79l.22-.31V626.31h58.63V467.23h0c11-24,71.51-30.79,71.51-30.79l25.21-29h.05c37.94-36.54,61.78-89.33,61.78-148C448.61,149.15,364.5,59.74,260.75,59.74Z"/><path class="cls-6" d="M257.12,397.28V429l20,28c11-24,71.51-30.79,71.51-30.79l25.21-29Z"/><path class="cls-7" d="M277.9,465l-24.78-34.67v-37H382.65l-32,36.77-1.55.17c-16.2,1.83-60.06,10.51-68.33,28.49Zm-16.78-37.24L277,449.89c15.7-19.53,60.54-26.24,69.7-27.42l18.44-21.19h-104Z"/><path class="cls-6" d="M238.34,397.28V429l-20,28c-11-24-71.52-30.79-71.52-30.79l-25.2-29Z"/><path class="cls-7" d="M217.55,465l-2.88-6.27c-8.27-18-52.12-26.67-68.32-28.49l-1.55-.17-32-36.77H242.34v37ZM148.8,422.47c9.17,1.18,54,7.89,69.7,27.42l15.84-22.15V401.28h-104Z"/><path class="cls-8" d="M121.75,397.28H373.93c37.94-36.54,61.77-89.32,61.77-148,0-110.29-84.11-199.7-187.86-199.7S60,139,60,249.25C60,308,83.81,360.74,121.75,397.28Z"/><path class="cls-7" d="M375.54,401.28H120.14L119,400.16c-40-38.56-63-93.56-63-150.91,0-112.32,86.07-203.7,191.86-203.7S439.7,136.93,439.7,249.25c0,57.35-23,112.35-63,150.91Zm-252.17-8H372.3c37.77-37,59.4-89.4,59.4-144,0-107.91-82.48-195.7-183.86-195.7S64,141.34,64,249.25C64,303.88,85.61,356.28,123.37,393.28Z"/><rect class="cls-6" x="218.53" y="397.28" width="58.62" height="218.84"/><path class="cls-7" d="M281.15,620.12H214.53V393.28h66.62Zm-58.62-8h50.62V401.28H222.53Z"/><circle class="cls-7" cx="28.28" cy="29.81" r="6.89"/><circle class="cls-7" cx="467.4" cy="29.81" r="6.89"/><circle class="cls-7" cx="28.28" cy="674.2" r="6.89"/><circle class="cls-7" cx="467.4" cy="674.2" r="6.89"/></g></g></svg>